<?xml version="1.0" standalone="no"?>
<!DOCTYPE svg PUBLIC "-//W3C//DTD SVG 20010904//EN"
 "http://www.w3.org/TR/2001/REC-SVG-20010904/DTD/svg10.dtd">
<svg version="1.0" xmlns="http://www.w3.org/2000/svg"
 width="533.000000pt" height="533.000000pt" viewBox="0 0 533.000000 533.000000"
 preserveAspectRatio="xMidYMid meet">
<metadata>
Created by potrace 1.11, written by Peter Selinger 2001-2013
</metadata>
<g transform="translate(0.000000,533.000000) scale(0.100000,-0.100000)"
fill="#000000" stroke="none">
<path d="M266 3158 c-19 -124 -131 -847 -150 -971 l-13 -89 31 6 c17 3 55 8
84 12 59 7 54 -2 73 137 12 84 13 87 38 88 14 0 33 2 41 3 8 2 43 6 77 10 71
7 66 15 84 -113 l12 -83 69 6 c72 8 109 13 113 18 2 2 -37 242 -86 533 -49
292 -89 533 -89 538 0 4 -60 7 -134 7 l-133 0 -17 -102z m184 -386 c20 -136
36 -249 34 -251 -2 -2 -16 -5 -31 -7 -125 -13 -123 -13 -123 4 0 34 75 523 78
512 3 -7 21 -123 42 -258z"/>
<path d="M800 2724 l0 -536 98 7 c53 4 99 8 102 10 3 2 55 6 115 10 117 8 145
11 153 20 3 2 6 36 6 75 1 69 -1 73 -34 72 -26 -1 -237 -14 -245 -15 -6 -1
-10 164 -11 438 -1 242 -2 443 -3 448 0 4 -41 7 -91 7 l-90 0 0 -536z"/>
<path d="M1343 2746 l0 -514 21 3 c12 2 75 6 141 10 209 11 290 16 302 20 7 2
11 29 10 76 l-2 73 -65 -3 c-36 -1 -100 -4 -142 -7 l-78 -5 0 430 0 431 -93 0
-94 0 0 -514z"/>
<path d="M2015 3238 c-3 -13 -30 -158 -60 -323 -45 -253 -66 -372 -110 -628
l-5 -27 83 6 c45 4 83 7 84 8 1 1 8 38 16 84 8 45 17 85 21 89 3 3 51 8 105
10 l99 4 12 -73 c19 -117 9 -108 111 -108 68 0 89 3 89 13 0 13 -29 177 -70
397 -10 58 -31 170 -46 250 -15 80 -34 183 -43 230 l-17 85 -132 3 c-130 3
-132 2 -137 -20z m204 -619 c1 -19 -48 -27 -115 -19 l-41 5 38 225 c21 124 39
230 40 235 1 12 78 -422 78 -446z"/>
<path d="M2540 3213 c-1 -46 -1 -697 0 -855 l0 -78 80 0 80 0 1 348 1 347 39
-120 c21 -66 69 -222 106 -347 l67 -227 93 -3 93 -3 0 493 0 492 -80 0 -80 0
0 -282 -1 -283 -87 282 -87 283 -112 0 -113 0 0 -47z"/>
<path d="M3220 2766 l0 -495 90 -3 90 -3 1 45 c0 25 0 118 1 208 l0 162 114 0
114 0 0 73 0 72 -63 1 c-34 1 -85 2 -114 3 l-51 1 -1 145 0 145 145 0 144 0 0
70 0 70 -235 0 -235 0 0 -494z"/>
<path d="M3770 2755 c0 -278 3 -505 8 -506 4 0 14 -2 22 -3 8 -2 69 -6 134
-10 130 -7 236 -15 278 -21 23 -3 26 1 30 29 1 17 1 53 -2 80 l-5 49 -40 3
c-22 2 -69 5 -105 8 -36 3 -81 5 -102 5 l-36 1 0 423 c0 232 -1 428 -1 435 -1
9 -26 12 -91 12 l-90 0 0 -505z"/>
<path d="M4312 2735 c-1 -484 0 -524 16 -529 9 -2 51 -7 93 -11 l77 -6 0 535
0 536 -93 0 -93 0 0 -525z"/>
<path d="M4595 3243 c16 -39 79 -216 127 -353 59 -169 64 -120 -50 -440 -44
-124 -83 -235 -86 -247 -6 -20 -2 -22 46 -28 29 -3 68 -7 86 -8 l33 -2 45 135
c24 74 54 168 66 207 13 40 26 73 29 73 3 0 27 -71 53 -157 26 -87 57 -189 69
-228 l22 -69 90 -12 c50 -7 92 -11 94 -9 4 5 -46 173 -125 417 l-66 201 88
256 c48 141 89 262 92 269 3 9 -17 12 -81 12 l-86 0 -63 -190 c-34 -104 -65
-190 -68 -190 -3 0 -34 84 -67 188 l-61 187 -97 3 c-90 3 -97 1 -90 -15z"/>
</g>
</svg>
